<?xml version="1.0" encoding="UTF-8" standalone="no"?>
<!-- Created with Inkscape (http://www.inkscape.org/) -->

<svg
   xmlns:dc="http://purl.org/dc/elements/1.1/"
   xmlns:cc="http://creativecommons.org/ns#"
   xmlns:rdf="http://www.w3.org/1999/02/22-rdf-syntax-ns#"
   xmlns:svg="http://www.w3.org/2000/svg"
   xmlns="http://www.w3.org/2000/svg"
   xmlns:xlink="http://www.w3.org/1999/xlink"
   xmlns:sodipodi="http://sodipodi.sourceforge.net/DTD/sodipodi-0.dtd"
   xmlns:inkscape="http://www.inkscape.org/namespaces/inkscape"
   inkscape:export-ydpi="562.28998"
   inkscape:export-xdpi="562.28998"
   inkscape:export-filename="C:\dev\SafeStick\artwork\stick.png"
   sodipodi:docname="icons.svg"
   inkscape:version="0.47pre3 "
   id="svg3223"
   height="48.000004"
   width="48.000008"
   version="1.0">
  <metadata
     id="metadata67">
    <rdf:RDF>
      <cc:Work
         rdf:about="">
        <dc:format>image/svg+xml</dc:format>
        <dc:type
           rdf:resource="http://purl.org/dc/dcmitype/StillImage" />
        <dc:title></dc:title>
      </cc:Work>
    </rdf:RDF>
  </metadata>
  <sodipodi:namedview
     pagecolor="#ffffff"
     bordercolor="#666666"
     borderopacity="1"
     objecttolerance="10"
     gridtolerance="10"
     guidetolerance="10"
     inkscape:pageopacity="0"
     inkscape:pageshadow="2"
     inkscape:window-width="1453"
     inkscape:window-height="1028"
     id="namedview65"
     showgrid="false"
     inkscape:zoom="32"
     inkscape:cx="-306.77195"
     inkscape:cy="35.54457"
     inkscape:window-x="-8"
     inkscape:window-y="-8"
     inkscape:window-maximized="1"
     inkscape:current-layer="svg3223" />
  <defs
     id="defs3225">
    <linearGradient
       inkscape:collect="always"
       id="linearGradient3344">
      <stop
         style="stop-color:#ff0000;stop-opacity:1;"
         offset="0"
         id="stop3346" />
      <stop
         style="stop-color:#ff0000;stop-opacity:0;"
         offset="1"
         id="stop3348" />
    </linearGradient>
    <linearGradient
       id="linearGradient3734">
      <stop
         id="stop3736"
         style="stop-color:#d1e3e3;stop-opacity:1"
         offset="0" />
      <stop
         id="stop3738"
         style="stop-color:#ffffff;stop-opacity:1;"
         offset="1" />
    </linearGradient>
    <linearGradient
       id="linearGradient3704">
      <stop
         offset="0"
         style="stop-color:#d1e3e3;stop-opacity:1;"
         id="stop3706" />
      <stop
         offset="1"
         style="stop-color:#ffffff;stop-opacity:1;"
         id="stop3708" />
    </linearGradient>
    <inkscape:perspective
       sodipodi:type="inkscape:persp3d"
       inkscape:vp_x="0 : 24.000002 : 1"
       inkscape:vp_y="0 : 1000 : 0"
       inkscape:vp_z="48.000008 : 24.000002 : 1"
       inkscape:persp3d-origin="24.000004 : 16.000001 : 1"
       id="perspective69" />
    <linearGradient
       id="linearGradient4192">
      <stop
         id="stop4194"
         style="stop-color:#9f9f9f;stop-opacity:1"
         offset="0" />
      <stop
         id="stop4196"
         style="stop-color:#e7e7e7;stop-opacity:1"
         offset="1" />
    </linearGradient>
    <linearGradient
       id="linearGradient4184">
      <stop
         id="stop4186"
         style="stop-color:#8c8c8c;stop-opacity:1"
         offset="0" />
      <stop
         id="stop4188"
         style="stop-color:#9f9f9f;stop-opacity:0"
         offset="1" />
    </linearGradient>
    <linearGradient
       id="linearGradient4265">
      <stop
         id="stop4267"
         style="stop-color:#a4a4a4;stop-opacity:1;"
         offset="0" />
      <stop
         id="stop4269"
         style="stop-color:#dadada;stop-opacity:1;"
         offset="1" />
    </linearGradient>
    <linearGradient
       id="linearGradient4245">
      <stop
         id="stop4247"
         style="stop-color:#7f7f7f;stop-opacity:1"
         offset="0" />
      <stop
         id="stop4249"
         style="stop-color:#9f9f9f;stop-opacity:0"
         offset="1" />
    </linearGradient>
    <linearGradient
       x1="18.810532"
       y1="0.52716595"
       x2="27.810532"
       y2="9.5271664"
       id="linearGradient4251"
       xlink:href="#linearGradient4245"
       gradientUnits="userSpaceOnUse"
       gradientTransform="matrix(1.0978156,0,0,1.0978156,-58.846858,-25.142404)" />
    <linearGradient
       x1="28.989502"
       y1="10.727782"
       x2="17.915873"
       y2="-0.075758651"
       id="linearGradient4271"
       xlink:href="#linearGradient4265"
       gradientUnits="userSpaceOnUse"
       gradientTransform="matrix(1.0978156,-3.7623355e-8,-3.7623355e-8,1.0978156,-58.846862,-25.142405)" />
    <linearGradient
       x1="16.684771"
       y1="11.777248"
       x2="29.936295"
       y2="46.365616"
       id="linearGradient4190"
       xlink:href="#linearGradient4184"
       gradientUnits="userSpaceOnUse"
       gradientTransform="translate(-56.566711,-24.010911)" />
    <linearGradient
       x1="31.621063"
       y1="48"
       x2="15"
       y2="10.142864"
       id="linearGradient4198"
       xlink:href="#linearGradient4192"
       gradientUnits="userSpaceOnUse"
       gradientTransform="matrix(1.0978156,-3.7623355e-8,-3.7623355e-8,1.0978156,-58.846862,-25.142405)" />
    <linearGradient
       x1="27.622152"
       y1="11.729075"
       x2="27.622152"
       y2="33.562592"
       id="linearGradient4208"
       xlink:href="#linearGradient4184"
       gradientUnits="userSpaceOnUse"
       gradientTransform="matrix(-0.7762729,-0.7762729,0.7762729,-0.7762729,23.832646,59.389379)" />
    <linearGradient
       x1="16.684771"
       y1="11.777248"
       x2="29.936295"
       y2="46.365616"
       id="linearGradient7150"
       xlink:href="#linearGradient4184"
       gradientUnits="userSpaceOnUse"
       gradientTransform="matrix(1.0978156,0,0,1.0978156,-58.846858,-25.142404)" />
    <linearGradient
       x1="28.989502"
       y1="10.727782"
       x2="17.915873"
       y2="-0.075758651"
       id="linearGradient2492"
       xlink:href="#linearGradient4265"
       gradientUnits="userSpaceOnUse"
       gradientTransform="matrix(1.0978157,-3.762336e-8,-3.762336e-8,1.0978157,-49.590674,-2.4314676)" />
    <linearGradient
       x1="18.810532"
       y1="0.52716595"
       x2="27.810532"
       y2="9.5271664"
       id="linearGradient2494"
       xlink:href="#linearGradient4245"
       gradientUnits="userSpaceOnUse"
       gradientTransform="matrix(1.0978157,0,0,1.0978157,-49.59067,-2.4314666)" />
    <linearGradient
       x1="31.621063"
       y1="48"
       x2="15"
       y2="10.142864"
       id="linearGradient2496"
       xlink:href="#linearGradient4192"
       gradientUnits="userSpaceOnUse"
       gradientTransform="matrix(1.0978157,-3.762336e-8,-3.762336e-8,1.0978157,-49.590674,-2.4314676)" />
    <linearGradient
       x1="16.684771"
       y1="11.777248"
       x2="29.936295"
       y2="46.365616"
       id="linearGradient2498"
       xlink:href="#linearGradient4184"
       gradientUnits="userSpaceOnUse"
       gradientTransform="matrix(1.0978157,0,0,1.0978157,-49.59067,-2.4314666)" />
    <linearGradient
       x1="27.622152"
       y1="11.729075"
       x2="27.622152"
       y2="33.562592"
       id="linearGradient2500"
       xlink:href="#linearGradient4184"
       gradientUnits="userSpaceOnUse"
       gradientTransform="matrix(0,-1.0978157,1.0978157,0,-2.4314666,49.590665)" />
    <linearGradient
       x1="27.622152"
       y1="11.729075"
       x2="27.622152"
       y2="33.562592"
       id="linearGradient2545"
       xlink:href="#linearGradient4184"
       gradientUnits="userSpaceOnUse"
       gradientTransform="matrix(-0.7762729,-0.7762729,0.7762729,-0.7762729,23.40546,60.7852)" />
    <linearGradient
       x1="16.684771"
       y1="11.777248"
       x2="29.936295"
       y2="46.365616"
       id="linearGradient2548"
       xlink:href="#linearGradient4184"
       gradientUnits="userSpaceOnUse"
       gradientTransform="matrix(1.0978157,0,0,1.0978157,-59.531792,-26.431468)" />
    <linearGradient
       x1="31.621063"
       y1="48"
       x2="15"
       y2="10.142864"
       id="linearGradient2552"
       xlink:href="#linearGradient4192"
       gradientUnits="userSpaceOnUse"
       gradientTransform="matrix(1.0978157,-3.7623361e-8,-3.7623361e-8,1.0978157,-59.531796,-26.431469)" />
    <linearGradient
       x1="18.810532"
       y1="0.52716595"
       x2="27.810532"
       y2="9.5271664"
       id="linearGradient2555"
       xlink:href="#linearGradient4245"
       gradientUnits="userSpaceOnUse"
       gradientTransform="matrix(1.0978157,0,0,1.0978157,-59.531792,-26.431468)" />
    <linearGradient
       x1="28.989502"
       y1="10.727782"
       x2="17.915873"
       y2="-0.075758651"
       id="linearGradient2559"
       xlink:href="#linearGradient4265"
       gradientUnits="userSpaceOnUse"
       gradientTransform="matrix(1.0978157,-3.7623361e-8,-3.7623361e-8,1.0978157,-59.531796,-26.431469)" />
    <linearGradient
       x1="28.989502"
       y1="10.727782"
       x2="17.915873"
       y2="-0.075758651"
       id="linearGradient2572"
       xlink:href="#linearGradient4265"
       gradientUnits="userSpaceOnUse"
       gradientTransform="matrix(1.0978157,-3.7623361e-8,-3.7623361e-8,1.0978157,-59.531796,-26.431469)" />
    <linearGradient
       x1="18.810532"
       y1="0.52716595"
       x2="27.810532"
       y2="9.5271664"
       id="linearGradient2574"
       xlink:href="#linearGradient4245"
       gradientUnits="userSpaceOnUse"
       gradientTransform="matrix(1.0978157,0,0,1.0978157,-59.531792,-26.431468)" />
    <linearGradient
       x1="31.621063"
       y1="48"
       x2="15"
       y2="10.142864"
       id="linearGradient2576"
       xlink:href="#linearGradient4192"
       gradientUnits="userSpaceOnUse"
       gradientTransform="matrix(1.0978157,-3.7623361e-8,-3.7623361e-8,1.0978157,-59.531796,-26.431469)" />
    <linearGradient
       x1="16.684771"
       y1="11.777248"
       x2="29.936295"
       y2="46.365616"
       id="linearGradient2578"
       xlink:href="#linearGradient4184"
       gradientUnits="userSpaceOnUse"
       gradientTransform="matrix(1.0978157,0,0,1.0978157,-59.531792,-26.431468)" />
    <linearGradient
       x1="27.622152"
       y1="11.729075"
       x2="27.622152"
       y2="33.562592"
       id="linearGradient2580"
       xlink:href="#linearGradient4184"
       gradientUnits="userSpaceOnUse"
       gradientTransform="matrix(-0.7762729,-0.7762729,0.7762729,-0.7762729,23.40546,60.7852)" />
    <linearGradient
       x1="27.622152"
       y1="11.729075"
       x2="27.622152"
       y2="33.562592"
       id="linearGradient2585"
       xlink:href="#linearGradient4184"
       gradientUnits="userSpaceOnUse"
       gradientTransform="matrix(-0.7762729,-0.7762729,0.7762729,-0.7762729,23.40546,60.7852)" />
    <linearGradient
       x1="16.684771"
       y1="11.777248"
       x2="29.936295"
       y2="46.365616"
       id="linearGradient2588"
       xlink:href="#linearGradient4184"
       gradientUnits="userSpaceOnUse"
       gradientTransform="matrix(1.0978157,0,0,1.0978157,-59.531794,-26.431469)" />
    <linearGradient
       x1="31.621063"
       y1="48"
       x2="15"
       y2="10.142864"
       id="linearGradient2592"
       xlink:href="#linearGradient4192"
       gradientUnits="userSpaceOnUse"
       gradientTransform="matrix(1.0978157,-3.7623362e-8,-3.7623362e-8,1.0978157,-59.531798,-26.43147)" />
    <linearGradient
       x1="18.810532"
       y1="0.52716595"
       x2="27.810532"
       y2="9.5271664"
       id="linearGradient2595"
       xlink:href="#linearGradient4245"
       gradientUnits="userSpaceOnUse"
       gradientTransform="matrix(1.0978157,0,0,1.0978157,-59.531794,-26.431469)" />
    <linearGradient
       x1="28.989502"
       y1="10.727782"
       x2="17.915873"
       y2="-0.075758651"
       id="linearGradient2599"
       xlink:href="#linearGradient4265"
       gradientUnits="userSpaceOnUse"
       gradientTransform="matrix(1.0978157,-3.7623362e-8,-3.7623362e-8,1.0978157,-59.531798,-26.43147)" />
    <linearGradient
       x1="27.622152"
       y1="11.729075"
       x2="27.622152"
       y2="33.562592"
       id="linearGradient3261"
       xlink:href="#linearGradient4184"
       gradientUnits="userSpaceOnUse"
       gradientTransform="matrix(-0.7762729,-0.7762729,0.7762729,-0.7762729,23.40546,60.7852)" />
    <linearGradient
       x1="16.684771"
       y1="11.777248"
       x2="29.936295"
       y2="46.365616"
       id="linearGradient3264"
       xlink:href="#linearGradient4184"
       gradientUnits="userSpaceOnUse"
       gradientTransform="matrix(1.0978157,0,0,1.0978157,-59.531796,-26.43147)" />
    <linearGradient
       x1="31.621063"
       y1="48"
       x2="15"
       y2="10.142864"
       id="linearGradient3268"
       xlink:href="#linearGradient4192"
       gradientUnits="userSpaceOnUse"
       gradientTransform="matrix(1.0978157,-3.7623363e-8,-3.7623363e-8,1.0978157,-59.5318,-26.431471)" />
    <linearGradient
       x1="18.810532"
       y1="0.52716595"
       x2="27.810532"
       y2="9.5271664"
       id="linearGradient3271"
       xlink:href="#linearGradient4245"
       gradientUnits="userSpaceOnUse"
       gradientTransform="matrix(1.0978157,0,0,1.0978157,-59.531796,-26.43147)" />
    <linearGradient
       x1="28.989502"
       y1="10.727782"
       x2="17.915873"
       y2="-0.075758651"
       id="linearGradient3275"
       xlink:href="#linearGradient4265"
       gradientUnits="userSpaceOnUse"
       gradientTransform="matrix(1.0978157,-3.7623363e-8,-3.7623363e-8,1.0978157,-59.5318,-26.431471)" />
    <linearGradient
       x1="27.622152"
       y1="11.729075"
       x2="27.622152"
       y2="33.562592"
       id="linearGradient2448"
       xlink:href="#linearGradient4184"
       gradientUnits="userSpaceOnUse"
       gradientTransform="matrix(-0.7762729,-0.7762729,0.7762729,-0.7762729,23.40546,60.7852)" />
    <linearGradient
       x1="16.684771"
       y1="11.777248"
       x2="29.936295"
       y2="46.365616"
       id="linearGradient2451"
       xlink:href="#linearGradient4184"
       gradientUnits="userSpaceOnUse"
       gradientTransform="matrix(1.0978157,0,0,1.0978157,-59.531798,-26.431471)" />
    <linearGradient
       x1="31.621063"
       y1="48"
       x2="15"
       y2="10.142864"
       id="linearGradient2455"
       xlink:href="#linearGradient4192"
       gradientUnits="userSpaceOnUse"
       gradientTransform="matrix(1.0978157,-3.7623364e-8,-3.7623364e-8,1.0978157,-59.531802,-26.431472)" />
    <linearGradient
       x1="18.810532"
       y1="0.52716595"
       x2="27.810532"
       y2="9.5271664"
       id="linearGradient2458"
       xlink:href="#linearGradient4245"
       gradientUnits="userSpaceOnUse"
       gradientTransform="matrix(1.0978157,0,0,1.0978157,-59.531798,-26.431471)" />
    <linearGradient
       x1="28.989502"
       y1="10.727782"
       x2="17.915873"
       y2="-0.075758651"
       id="linearGradient2462"
       xlink:href="#linearGradient4265"
       gradientUnits="userSpaceOnUse"
       gradientTransform="matrix(1.0978157,-3.7623364e-8,-3.7623364e-8,1.0978157,-59.531802,-26.431472)" />
    <linearGradient
       inkscape:collect="always"
       xlink:href="#linearGradient4184"
       id="linearGradient2919"
       gradientUnits="userSpaceOnUse"
       gradientTransform="matrix(1.0978157,0,0,1.0978157,47.833066,-10.363672)"
       x1="16.684771"
       y1="11.777248"
       x2="29.936295"
       y2="46.365616" />
    <linearGradient
       inkscape:collect="always"
       xlink:href="#linearGradient4245"
       id="linearGradient2926"
       gradientUnits="userSpaceOnUse"
       gradientTransform="matrix(1.0978157,0,0,1.0978157,-45.522874,-11.584011)"
       x1="18.810532"
       y1="0.52716595"
       x2="27.810532"
       y2="9.5271664" />
    <linearGradient
       inkscape:collect="always"
       xlink:href="#linearGradient4265"
       id="linearGradient3714"
       gradientUnits="userSpaceOnUse"
       gradientTransform="matrix(1.0978157,-3.7623364e-8,-3.7623364e-8,1.0978157,-74.573725,-8.5331645)"
       x1="28.989502"
       y1="10.727782"
       x2="17.915873"
       y2="-0.075758651" />
    <linearGradient
       inkscape:collect="always"
       xlink:href="#linearGradient3704"
       id="linearGradient3716"
       gradientUnits="userSpaceOnUse"
       gradientTransform="matrix(1.0897101,-4.7150713e-8,-3.7345575e-8,1.3758151,-74.384778,-11.428567)"
       x1="31.621063"
       y1="48"
       x2="15"
       y2="10.142864" />
    <linearGradient
       inkscape:collect="always"
       xlink:href="#linearGradient3734"
       id="linearGradient3732"
       x1="-78.383438"
       y1="20.405838"
       x2="-117.57516"
       y2="-40.381313"
       gradientUnits="userSpaceOnUse"
       gradientTransform="translate(29.860355,-29.593745)" />
    <linearGradient
       inkscape:collect="always"
       xlink:href="#linearGradient4265"
       id="linearGradient2912"
       gradientUnits="userSpaceOnUse"
       gradientTransform="matrix(1.0978157,-3.7623364e-8,-3.7623364e-8,1.0978157,-48.185427,46.198899)"
       x1="28.989502"
       y1="10.727782"
       x2="17.915873"
       y2="-0.075758651" />
    <linearGradient
       inkscape:collect="always"
       xlink:href="#linearGradient4265"
       id="linearGradient2914"
       gradientUnits="userSpaceOnUse"
       gradientTransform="matrix(1.0978157,-3.7623364e-8,-3.7623364e-8,1.0978157,-48.185427,46.198899)"
       x1="28.989502"
       y1="10.727782"
       x2="17.915873"
       y2="-0.075758651" />
    <linearGradient
       inkscape:collect="always"
       xlink:href="#linearGradient4265"
       id="linearGradient3332"
       gradientUnits="userSpaceOnUse"
       gradientTransform="matrix(1.0978157,-3.7623364e-8,-3.7623364e-8,1.0978157,-135.10039,44.332627)"
       x1="28.989502"
       y1="10.727782"
       x2="17.915873"
       y2="-0.075758651" />
    <linearGradient
       inkscape:collect="always"
       xlink:href="#linearGradient4265"
       id="linearGradient3338"
       gradientUnits="userSpaceOnUse"
       gradientTransform="matrix(1.0978157,-3.7623364e-8,-3.7623364e-8,1.0978157,-135.10039,44.332627)"
       x1="28.989502"
       y1="10.727782"
       x2="17.915873"
       y2="-0.075758651" />
    <linearGradient
       inkscape:collect="always"
       xlink:href="#linearGradient3344"
       id="linearGradient3350"
       x1="-103.17819"
       y1="102.38851"
       x2="-123.70718"
       y2="63.196793"
       gradientUnits="userSpaceOnUse" />
    <inkscape:perspective
       id="perspective3082"
       inkscape:persp3d-origin="0.5 : 0.33333333 : 1"
       inkscape:vp_z="1 : 0.5 : 1"
       inkscape:vp_y="0 : 1000 : 0"
       inkscape:vp_x="0 : 0.5 : 1"
       sodipodi:type="inkscape:persp3d" />
  </defs>
  <rect
     style="fill:#666666;fill-opacity:1;stroke:none"
     id="rect4226"
     width="84.080795"
     height="101.80186"
     x="-414.41342"
     y="-58.171364" />
  <path
     style="fill:url(#linearGradient3332);fill-opacity:1;stroke:#ffffff;stroke-width:1.0571965;stroke-linejoin:round;stroke-miterlimit:4;stroke-opacity:1;stroke-dasharray:none;display:inline"
     d="m -117.125,42.375 c -0.0834,4.740479 -2.51683,12.478793 1.5,15.625 4.45416,-1.213858 14.5732,3.220746 14.25,-4 -0.30912,-4.909372 2.307959,-14.569496 -6,-12.3125 -3.19626,0.379816 -6.81082,-0.815429 -9.75,0.6875 z"
     id="rect2898" />
  <rect
     style="fill:#483737;fill-opacity:1;stroke:none"
     id="rect2882"
     width="46.123585"
     height="98.112595"
     x="48.523075"
     y="-20.518847"
     rx="1.7923352"
     ry="2.5847955" />
  <g
     transform="matrix(-0.70710678,0.70710678,-0.70710678,-0.70710678,57.941131,24.000003)"
     id="layer3"
     style="display:inline">
    <g
       id="layer4" />
  </g>
  <g
     id="g4140">
    <path
       id="rect4230"
       d="m -218.59375,-7.875 c -0.0834,4.740479 -2.51683,12.4787925 1.5,15.625 4.45416,-1.2138576 14.5732,3.220746 14.25,-4 -0.30912,-4.909372 2.30796,-14.569496 -6,-12.3125 -3.19626,0.379816 -6.81082,-0.815429 -9.75,0.6875 z"
       style="fill:#b3b3b3;fill-opacity:1;stroke:#ffffff;stroke-width:1.0571965;stroke-linejoin:round;stroke-miterlimit:4;stroke-opacity:1;stroke-dasharray:none;display:inline" />
    <path
       id="rect4227"
       d="m -218.03125,1.84375 c -6.07216,1.8173515 -2.46605,10.105115 -3.4375,14.5625 0.28018,12.499534 -0.52824,25.137586 0.34375,37.5625 2.90135,5.31791 10.67345,1.333894 15.4375,2.5625 6.55953,0.902146 5.42184,-7.588984 5.21875,-11.59375 -0.28438,-13.486759 0.53376,-27.125146 -0.34375,-40.53125 -2.86539,-5.37428067 -10.68301,-1.3552779 -15.4375,-2.59375 -0.59171,0.055428 -1.19102,-0.056691 -1.78125,0.03125 z"
       style="fill:#ff0000;fill-opacity:1;stroke:#ffffff;stroke-width:1.22443449;stroke-linejoin:round;stroke-miterlimit:4;stroke-opacity:1;stroke-dasharray:none" />
  </g>
  <rect
     style="fill:#e7e7e7;fill-opacity:1;stroke:none;display:inline"
     id="rect3209"
     y="16.80287"
     x="27.912588"
     ry="1.0978156"
     rx="1.0978156"
     height="37.971653"
     width="14.547729" />
  <rect
     style="fill:url(#linearGradient2919);fill-opacity:1;stroke:none;display:inline"
     id="rect4182"
     y="2.5655797"
     x="66.149879"
     ry="1.0978156"
     rx="1.0978156"
     height="37.971653"
     width="14.547729" />
  <rect
     width="12.251187"
     height="12.310834"
     x="-55.108643"
     y="-9.1696758"
     id="rect3710"
     style="fill:url(#linearGradient3714);fill-opacity:1;stroke:#404040;stroke-width:1.0571965;stroke-linejoin:round;stroke-miterlimit:4;stroke-opacity:1;stroke-dasharray:none;display:inline"
     inkscape:export-filename="C:\dev\SafeStick\artwork\usbstick.png"
     inkscape:export-xdpi="562.28998"
     inkscape:export-ydpi="562.28998" />
  <rect
     width="17.022432"
     height="50.708603"
     rx="1.7923352"
     ry="2.5847955"
     x="-57.494267"
     y="3.2140515"
     id="rect3712"
     style="fill:url(#linearGradient3716);fill-opacity:1;stroke:#4e4e4e;stroke-width:1.22443449;stroke-linejoin:round;stroke-miterlimit:4;stroke-opacity:1;stroke-dasharray:none"
     inkscape:export-filename="C:\dev\SafeStick\artwork\usbstick.png"
     inkscape:export-xdpi="562.28998"
     inkscape:export-ydpi="562.28998" />
  <rect
     style="fill:#ffffff;fill-opacity:1;stroke:none"
     id="rect3720"
     y="3.7643514"
     x="-56.832436"
     ry="1.1426547"
     rx="1.347373"
     height="2.3736649"
     width="15.715975"
     inkscape:export-filename="C:\dev\SafeStick\artwork\usbstick.png"
     inkscape:export-xdpi="562.28998"
     inkscape:export-ydpi="562.28998" />
  <rect
     style="fill:url(#linearGradient3732);fill-opacity:1;stroke:none"
     id="rect3724"
     width="71.184952"
     height="69.052071"
     x="-106.11091"
     y="-73.574295"
     rx="1.347373"
     ry="1.1426547" />
  <path
     style="fill:url(#linearGradient3338);fill-opacity:1;stroke:#ffffff;stroke-width:1.0571965;stroke-linejoin:round;stroke-miterlimit:4;stroke-opacity:1;stroke-dasharray:none;display:inline"
     d="m -117.125,42.375 c -0.0834,4.740479 -2.51683,12.478793 1.5,15.625 4.45416,-1.213858 14.5732,3.220746 14.25,-4 -0.30912,-4.909372 2.307959,-14.569496 -6,-12.3125 -3.19626,0.379816 -6.81082,-0.815429 -9.75,0.6875 z"
     id="rect2892" />
  <path
     style="fill:#ff0000;fill-opacity:1;stroke:#ffffff;stroke-width:1.22443449;stroke-linejoin:round;stroke-miterlimit:4;stroke-opacity:1;stroke-dasharray:none"
     d="m -116.75,54.125 c -6.06744,2.270054 -2.17539,10.779458 -3.28125,15.53125 0.43301,12.259468 -0.81696,24.791045 0.53125,36.90625 3.21598,4.82946 10.53807,1.00222 15.28125,2.21875 6.510695,0.94652 5.440893,-7.60373 5.21875,-11.5625 -0.377273,-13.558758 0.713947,-27.347462 -0.46875,-40.78125 -3.07765,-5.045059 -10.56792,-1.099294 -15.3125,-2.34375 -0.65448,0.04288 -1.31593,-0.05057 -1.96875,0.03125 z"
     id="rect2894" />
  <rect
     style="fill:url(#linearGradient2912);fill-opacity:1;stroke:#ffffff;stroke-width:1.0571965;stroke-linejoin:round;stroke-miterlimit:4;stroke-opacity:1;stroke-dasharray:none;display:inline"
     id="rect2904"
     y="45.562389"
     x="-28.720345"
     height="12.310834"
     width="12.251187"
     inkscape:export-filename="C:\dev\safetystick\artwork\5x16.png"
     inkscape:export-xdpi="22.418333"
     inkscape:export-ydpi="22.418333" />
  <rect
     style="fill:#ff0000;fill-opacity:1;stroke:#ffffff;stroke-width:1.22443449;stroke-linejoin:round;stroke-miterlimit:4;stroke-opacity:1;stroke-dasharray:none"
     id="rect2906"
     y="57.946114"
     x="-31.105965"
     ry="2.5847955"
     rx="1.7923352"
     height="50.708603"
     width="17.022432"
     inkscape:export-filename="C:\dev\safetystick\artwork\5x16.png"
     inkscape:export-xdpi="22.418333"
     inkscape:export-ydpi="22.418333" />
  <rect
     inkscape:export-ydpi="22.418333"
     inkscape:export-xdpi="22.418333"
     inkscape:export-filename="C:\dev\safetystick\artwork\5x16.png"
     width="12.251187"
     height="12.310834"
     x="-28.720345"
     y="45.562389"
     id="rect2908"
     style="fill:url(#linearGradient2914);fill-opacity:1;stroke:#ffffff;stroke-width:1.0571965;stroke-linejoin:round;stroke-miterlimit:4;stroke-opacity:1;stroke-dasharray:none;display:inline" />
  <rect
     inkscape:export-ydpi="22.418333"
     inkscape:export-xdpi="22.418333"
     inkscape:export-filename="C:\dev\safetystick\artwork\5x16.png"
     width="17.022432"
     height="50.708603"
     rx="1.7923352"
     ry="2.5847955"
     x="-31.105965"
     y="57.946114"
     id="rect2910"
     style="fill:#ff0000;fill-opacity:1;stroke:#ffffff;stroke-width:1.22443449;stroke-linejoin:round;stroke-miterlimit:4;stroke-opacity:1;stroke-dasharray:none" />
  <path
     id="path3340"
     d="m -113.41116,45.553039 c -1.69048,6.654795 4.48283,3.821008 1.55673,-0.443073 -0.52611,-0.367285 -1.09104,-0.08133 -1.55673,0.443073 z"
     style="fill:#ffffff;fill-opacity:1;stroke:#ffffff;stroke-width:0.09244236;stroke-linejoin:round;stroke-miterlimit:4;stroke-opacity:1;stroke-dasharray:none;display:inline" />
  <path
     style="fill:#ffffff;fill-opacity:1;stroke:#ffffff;stroke-width:0.09244236;stroke-linejoin:round;stroke-miterlimit:4;stroke-opacity:1;stroke-dasharray:none;display:inline"
     d="m -107.94565,45.586365 c -1.69048,6.654795 4.48283,3.821008 1.55673,-0.443073 -0.52611,-0.367285 -1.09104,-0.08133 -1.55673,0.443073 z"
     id="path3342" />
  <path
     style="fill:url(#linearGradient3350);fill-opacity:1;stroke:#ffffff;stroke-width:1.22443448999999990;stroke-linejoin:round;stroke-miterlimit:4;stroke-opacity:1;stroke-dasharray:none"
     d="m -116.75,54.125 c -6.06744,2.270054 -2.17539,10.779458 -3.28125,15.53125 0.43301,12.259468 -0.81696,24.791045 0.53125,36.90625 3.21598,4.82946 10.53807,1.00222 15.28125,2.21875 6.510695,0.94652 5.440893,-7.60373 5.21875,-11.5625 -0.377273,-13.558758 0.713947,-27.347462 -0.46875,-40.78125 -3.07765,-5.045059 -10.56792,-1.099294 -15.3125,-2.34375 -0.65448,0.04288 -1.31593,-0.05057 -1.96875,0.03125 z"
     id="rect2900" />
  <g
     id="g4144"
     transform="matrix(0.24983272,0.05307429,-0.10313528,0.46857838,-148.67147,95.678349)">
    <path
       style="fill:#b3b3b3;fill-opacity:1;stroke:#ffffff;stroke-width:1.0571965;stroke-linejoin:round;stroke-miterlimit:4;stroke-opacity:1;stroke-dasharray:none;display:inline"
       d="m -218.59375,-7.875 c -0.0834,4.740479 -2.51683,12.4787925 1.5,15.625 4.45416,-1.2138576 14.5732,3.220746 14.25,-4 -0.30912,-4.909372 2.30796,-14.569496 -6,-12.3125 -3.19626,0.379816 -6.81082,-0.815429 -9.75,0.6875 z"
       id="path4146" />
    <path
       style="fill:#ff0000;fill-opacity:1;stroke:#ffffff;stroke-width:1.22443449;stroke-linejoin:round;stroke-miterlimit:4;stroke-opacity:1;stroke-dasharray:none"
       d="m -218.03125,1.84375 c -6.07216,1.8173515 -2.46605,10.105115 -3.4375,14.5625 0.28018,12.499534 -0.52824,25.137586 0.34375,37.5625 2.90135,5.31791 10.67345,1.333894 15.4375,2.5625 6.55953,0.902146 5.42184,-7.588984 5.21875,-11.59375 -0.28438,-13.486759 0.53376,-27.125146 -0.34375,-40.53125 -2.86539,-5.37428067 -10.68301,-1.3552779 -15.4375,-2.59375 -0.59171,0.055428 -1.19102,-0.056691 -1.78125,0.03125 z"
       id="path4148" />
  </g>
  <g
     transform="matrix(0.24881731,-0.0576473,0.10486808,0.46819362,-171.31512,118.86039)"
     id="g4150">
    <path
       id="path4152"
       d="m -218.59375,-7.875 c -0.0834,4.740479 -2.51683,12.4787925 1.5,15.625 4.45416,-1.2138576 14.5732,3.220746 14.25,-4 -0.30912,-4.909372 2.30796,-14.569496 -6,-12.3125 -3.19626,0.379816 -6.81082,-0.815429 -9.75,0.6875 z"
       style="fill:#b3b3b3;fill-opacity:1;stroke:#ffffff;stroke-width:1.0571965;stroke-linejoin:round;stroke-miterlimit:4;stroke-opacity:1;stroke-dasharray:none;display:inline" />
    <path
       id="path4154"
       d="m -218.03125,1.84375 c -6.07216,1.8173515 -2.46605,10.105115 -3.4375,14.5625 0.28018,12.499534 -0.52824,25.137586 0.34375,37.5625 2.90135,5.31791 10.67345,1.333894 15.4375,2.5625 6.55953,0.902146 5.42184,-7.588984 5.21875,-11.59375 -0.28438,-13.486759 0.53376,-27.125146 -0.34375,-40.53125 -2.86539,-5.37428067 -10.68301,-1.3552779 -15.4375,-2.59375 -0.59171,0.055428 -1.19102,-0.056691 -1.78125,0.03125 z"
       style="fill:#ff0000;fill-opacity:1;stroke:#ffffff;stroke-width:1.22443449;stroke-linejoin:round;stroke-miterlimit:4;stroke-opacity:1;stroke-dasharray:none" />
  </g>
  <g
     id="g4164"
     transform="matrix(0.24934418,0.05532398,-0.1073546,0.46762974,-156.10514,195.9935)">
    <path
       style="fill:#b3b3b3;fill-opacity:1;stroke:#ffffff;stroke-width:1.0571965;stroke-linejoin:round;stroke-miterlimit:4;stroke-opacity:1;stroke-dasharray:none;display:inline"
       d="m -218.59375,-7.875 c -0.0834,4.740479 -2.51683,12.4787925 1.5,15.625 4.45416,-1.2138576 14.5732,3.220746 14.25,-4 -0.30912,-4.909372 2.30796,-14.569496 -6,-12.3125 -3.19626,0.379816 -6.81082,-0.815429 -9.75,0.6875 z"
       id="path4166" />
    <path
       style="fill:#ff0000;fill-opacity:1;stroke:#ffffff;stroke-width:1.22443449;stroke-linejoin:round;stroke-miterlimit:4;stroke-opacity:1;stroke-dasharray:none"
       d="m -218.03125,1.84375 c -6.07216,1.8173515 -2.46605,10.105115 -3.4375,14.5625 0.28018,12.499534 -0.52824,25.137586 0.34375,37.5625 2.90135,5.31791 10.67345,1.333894 15.4375,2.5625 6.55953,0.902146 5.42184,-7.588984 5.21875,-11.59375 -0.28438,-13.486759 0.53376,-27.125146 -0.34375,-40.53125 -2.86539,-5.37428067 -10.68301,-1.3552779 -15.4375,-2.59375 -0.59171,0.055428 -1.19102,-0.056691 -1.78125,0.03125 z"
       id="path4168" />
  </g>
  <flowRoot
     transform="translate(-1.0664413,98.112596)"
     xml:space="preserve"
     id="flowRoot4170"
     style="font-size:40px;font-style:normal;font-weight:normal;fill:#000000;fill-opacity:1;stroke:none;font-family:Bitstream Vera Sans"><flowRegion
       id="flowRegion4172"><rect
         id="rect4174"
         width="197.57101"
         height="45.999359"
         x="-226.60339"
         y="117.75313" /></flowRegion><flowPara
       id="flowPara4176"
       style="font-style:normal;font-variant:normal;font-weight:normal;font-stretch:normal;font-family:Lucida Sans;-inkscape-font-specification:Lucida Sans">WorkSafe</flowPara></flowRoot>  <path
     style="fill:#b3b3b3;fill-opacity:1;stroke:#ffffff;stroke-width:0.37007925;stroke-linejoin:round;stroke-miterlimit:4;stroke-opacity:1;stroke-dasharray:none;display:inline"
     d="m -197.15435,224.61436 c -0.52971,2.21217 -1.96721,5.69621 -1.3034,7.3897 1.24093,-0.32121 3.28798,2.31236 3.98257,-1.08215 0.44997,-2.31287 2.13958,-6.68545 -0.17426,-6.08964 -0.83774,7.9e-4 -1.6107,-0.75812 -2.50491,-0.21791 z"
     id="path4186" />
  <path
     style="fill:#ff0000;fill-opacity:1;stroke:none"
     d="m -198.26814,228.70628 c -1.80495,0.42792 -2.02177,4.5563 -2.88379,6.57419 -1.64798,5.86758 -3.59377,11.72426 -5.07993,17.59809 0.0113,2.68987 2.54966,1.36648 3.60056,2.27267 1.5556,0.87833 2.4325,-3.1735 2.93148,-5.06132 1.78271,-6.32977 3.86863,-12.65379 5.48836,-18.98707 0.005,-2.71375 -2.54915,-1.37716 -3.59626,-2.28729 -0.15913,-0.0154 -0.29719,-0.10937 -0.46043,-0.10924 z"
     id="path4188" />
  <flowRoot
     style="font-size:40px;font-style:normal;font-weight:normal;fill:#000000;fill-opacity:1;stroke:none;font-family:Bitstream Vera Sans"
     id="flowRoot4192"
     xml:space="preserve"
     transform="translate(-2.9327135,138.37075)"><flowRegion
       id="flowRegion4194"><rect
         y="117.75313"
         x="-226.60339"
         height="45.999359"
         width="197.57101"
         id="rect4196" /></flowRegion><flowPara
       style="font-style:normal;font-variant:normal;font-weight:normal;font-stretch:normal;font-family:Trebuchet MS;-inkscape-font-specification:Trebuchet MS"
       id="flowPara4198">WorkSafe</flowPara></flowRoot>  <rect
     style="fill:#ffffff;fill-opacity:1;stroke:none"
     id="rect4216"
     width="13.730431"
     height="9.1980572"
     x="-206.42303"
     y="264.55423" />
  <path
     id="path4200"
     d="m -199.08727,264.87252 c -0.52971,2.21217 -1.90056,5.69621 -1.23675,7.3897 1.24093,-0.32121 3.28798,2.31236 3.98257,-1.08215 0.44997,-2.31287 2.20623,-6.28553 -0.10761,-5.68972 -0.83774,7.9e-4 -1.07748,-2.22448 -2.63821,-0.61783 z"
     style="fill:#b3b3b3;fill-opacity:1;stroke:#ffffff;stroke-width:0.37007925;stroke-linejoin:round;stroke-miterlimit:4;stroke-opacity:1;stroke-dasharray:none;display:inline"
     sodipodi:nodetypes="ccccc" />
  <path
     id="path4202"
     d="m -200.26772,269.69762 c -1.80495,0.42792 -2.02177,4.5563 -2.88379,6.57419 -1.64798,5.86758 -3.59377,11.72426 -5.07993,17.59809 0.0113,2.68987 0.95,0.36669 3.4006,2.47263 1.5556,0.87833 2.63246,-3.37346 3.13144,-5.26128 1.78271,-6.32977 3.86863,-12.65379 5.48836,-18.98707 1.00479,-4.31341 -1.14945,-1.0439 -3.59626,-2.28729 -0.15913,-0.0154 -0.29719,-0.10937 -0.46043,-0.10924 l 1e-5,-3e-5 z"
     style="fill:#ff0000;fill-opacity:1;stroke:none"
     sodipodi:nodetypes="ccccccccc" />
  <g
     style="stroke:none"
     id="g4234"
     transform="matrix(0.75672743,0.65373053,-0.65373053,0.75672743,-121.59591,155.44208)">
    <path
       style="fill:#b3b3b3;fill-opacity:1;stroke:none;display:inline"
       d="m -213.5783,52.391317 c -0.0159,0.90257 -0.4792,2.375918 0.28559,2.974945 0.84806,-0.231114 2.77469,0.613218 2.71315,-0.761586 -0.0589,-0.934727 0.43943,-2.773981 -1.14237,-2.344257 -0.60856,0.07232 -1.29676,-0.155255 -1.85637,0.130898 z"
       id="path4222" />
    <path
       style="fill:#ff0000;fill-opacity:1;stroke:none"
       d="m -213.4712,54.241733 c -1.15612,0.346017 -0.46953,1.923978 -0.65449,2.772648 0.0533,2.379868 -0.10058,4.786108 0.0654,7.151768 0.55241,1.012511 2.03219,0.253969 2.93924,0.487891 1.24892,0.171765 1.0323,-1.444916 0.99364,-2.207409 -0.0541,-2.567832 0.10162,-5.164532 -0.0654,-7.717008 -0.54556,-1.023244 -2.03401,-0.25804 -2.93925,-0.49384 -0.11266,0.01055 -0.22676,-0.01079 -0.33914,0.006 z"
       id="path4224" />
  </g>
  <g
     inkscape:export-ydpi="241.17"
     inkscape:export-xdpi="241.17"
     inkscape:export-filename="C:\dev\myWorkSafe\artwork\icondark32x32.png"
     transform="matrix(0.75672743,0.65373053,-0.65373053,0.75672743,-101.59591,103.94208)"
     id="g4238"
     style="stroke:#000000;stroke-opacity:1">
    <path
       id="path4240"
       d="m -213.5783,52.391317 c -0.0159,0.90257 -0.4792,2.375918 0.28559,2.974945 0.84806,-0.231114 2.77469,0.613218 2.71315,-0.761586 -0.0589,-0.934727 0.43943,-2.773981 -1.14237,-2.344257 -0.60856,0.07232 -1.29676,-0.155255 -1.85637,0.130898 z"
       style="fill:#b3b3b3;fill-opacity:1;stroke:#000000;stroke-width:0.75;stroke-linejoin:round;stroke-miterlimit:4;stroke-opacity:1;stroke-dasharray:none;display:inline" />
    <path
       id="path4242"
       d="m -213.4712,54.241733 c -1.15612,0.346017 -0.46953,1.923978 -0.65449,2.772648 0.0533,2.379868 -0.10058,4.786108 0.0654,7.151768 0.55241,1.012511 2.03219,0.253969 2.93924,0.487891 1.24892,0.171765 1.0323,-1.444916 0.99364,-2.207409 -0.0541,-2.567832 0.10162,-5.164532 -0.0654,-7.717008 -0.54556,-1.023244 -2.03401,-0.25804 -2.93925,-0.49384 -0.11266,0.01055 -0.22676,-0.01079 -0.33914,0.006 z"
       style="fill:#ff0000;fill-opacity:1;stroke:#000000;stroke-width:0.75;stroke-linejoin:round;stroke-miterlimit:4;stroke-opacity:1;stroke-dasharray:none" />
  </g>
  <image
     y="70.750008"
     x="-471.3125"
     id="image3084"
     height="33"
     width="40"
     xlink:href="file:///C:/dev/artwork/inkscape_pasted_image_20100804_145723.png" />
</svg>
